{"asset":{"version":"2.0","generator":"THREE.GLTFExporter"},"scenes":[{"nodes":[0],"name":"AuxScene"}],"scene":0,"nodes":[{"mesh":0}],"bufferViews":[{"buffer":0,"byteOffset":0,"byteLength":13248,"target":34962,"byteStride":12},{"buffer":0,"byteOffset":13248,"byteLength":13248,"target":34962,"byteStride":12}],"buffers":[{"byteLength":26496,"uri":"data:application/octet-stream;base64,"}],"accessors":[{"bufferView":0,"componentType":5126,"count":1104,"max":[100.61190795898438,10.095970153808594,100.61190795898438],"min":[-100.78809356689453,0.09596999734640121,-100.78809356689453],"type":"VEC3"},{"bufferView":1,"componentType":5126,"count":1104,"max":[0.708388090133667,1,0.45286017656326294],"min":[-0.3810034990310669,0.34280651807785034,-0.6169845461845398],"type":"VEC3"}],"materials":[{"pbrMetallicRoughness":{"baseColorFactor":[0.5019607843137255,0.5019607843137255,0.5019607843137255,1],"metallicFactor":0,"roughnessFactor":1}}],"meshes":[{"primitives":[{"mode":4,"attributes":{"POSITION":0,"NORMAL":1},"material":0}]}]}